<svg xmlns="http://www.w3.org/2000/svg" xmlns:xlink="http://www.w3.org/1999/xlink" width="100%" height="100%" viewBox="0 0 500 500" preserveAspectRatio="xMinYMin meet" ><rect id="svgEditorBackground" x="0" y="0" width="500" height="500" style="fill: url(#svgEditorGrid1); stroke: none;"/><defs id="svgEditorDefs"><pattern id="svgEditorGrid1" patternUnits="userSpaceOnUse" x="0" y="0" width="20" height="20" viewBox="0 0 10 10">
		<defs>
			<marker id="svgEditorGridMkSquare" viewBox="0 0 2 2" refX="1" refY="1" markerUnits="strokeWidth" markerWidth="2" markerHeight="2" orient="0deg">
			   <rect x="0" y="0" width="2" height="2" style="fill:black;stroke:none;"/>
			</marker>
		</defs>
		<g marker-start="url(#svgEditorGridMkSquare)" marker-end="url(#svgEditorGridMkSquare)" marker-mid="url(#svgEditorGridMkSquare)" stroke="none">
			<path d="M0,0M10,0M10,10M0,10" stroke-width="0.4"/>
			<path d="M5,0M0,5M5,5M10,5M5,10" stroke-width="0.2"/>
			<g stroke-width="0.125">
				<path d="M1,0M2,0M3,0M4,0M6,0M7,0M8,0M9,0"/>
				<path d="M0,1M1,1M2,1M3,1M4,1M5,1M6,1M7,1M8,1M9,1M10,1"/>
				<path d="M0,2M1,2M2,2M3,2M4,2M5,2M6,2M7,2M8,2M9,2M10,2"/>
				<path d="M0,3M1,3M2,3M3,3M4,3M5,3M6,3M7,3M8,3M9,3M10,3"/>
				<path d="M0,4M1,4M2,4M3,4M4,4M5,4M6,4M7,4M8,4M9,4M10,4"/>
				<path d="M1,5M2,5M3,5M4,5M6,5M7,5M8,5M9,5"/>
				<path d="M0,6M1,6M2,6M3,6M4,6M5,6M6,6M7,6M8,6M9,6M10,6"/>
				<path d="M0,7M1,7M2,7M3,7M4,7M5,7M6,7M7,7M8,7M9,7M10,7"/>
				<path d="M0,8M1,8M2,8M3,8M4,8M5,8M6,8M7,8M8,8M9,8M10,8"/>
				<path d="M0,9M1,9M2,9M3,9M4,9M5,9M6,9M7,9M8,9M9,9M10,9"/>
				<path d="M1,10M2,10M3,10M4,10M6,10M7,10M8,10M9,10"/>
			</g>
		</g>
    </pattern></defs><text style="fill:blue;font-family:Verdana;font-size:28.00px;font-weight:bold;" x="218.535" y="311.338" id="e1_texte" transform="matrix(2.33903 0 0 2.55827 -490.485 -327.297)">MED-PHARM</text><text style="fill:black;font-family:Verdana;font-size:26.00px;" x="192.079" y="37.624" id="e3_texte"></text><rect x="201.981" y="21.7821" style="fill:red;stroke:blue;stroke-width:8px;" id="e6_rectangle" width="96.0395" height="356.438"/><rect x="315.842000" y="26.732600" style="fill:red;stroke:blue;stroke-width:8px;" id="e22_rectangle" width="96.039500" height="356.438000" transform="matrix(0 -1 1 0 45.0495 574.755)"/><rect x="205.940000" y="155.446000" style="fill:red;stroke:red;stroke-width:1px;" id="e7_rectangle" width="88.119" height="122.77"/></svg>